<svg xmlns="http://www.w3.org/2000/svg" viewBox="0 0 423.59 142.81"><g id="Layer_2" data-name="Layer 2"><g id="Layer_1-2" data-name="Layer 1"><path d="M96.75,12.2a11.47,11.47,0,0,0-1.35,2.31c-4,9,3.55,20.67,13.58,23.08,9.53,2.25,26-4.62,26.16-16-.06,7.33,1.47,14.93.35,22.1-3,9.07-15.87,11.25-17.39,21.49-1.75,7.77,8,10.72,14.47,8.47.72,16.27-9.11,57.14,17.08,52.89C153,109.21,164,94.11,175.51,80.12c7.77-16.3-26.85-2.62-28.6,5.37-6.43-24.14,9.5-55.84,37-55.1-2.2,9.77-8.2,19-13.77,27.46.49,7.56,13.15-5.29,12.18,7.54-7.92,27,10.09,13.29,24.52,6.37C221.4,61.77,250,51.14,261.13,40c-3.35-2.35-9-1.06-3.09-5.57-24.08,4.36-53.22,17.72-70.48,33,1.57-20.31,27.78-28.5,44.15-35.63,6.49-6.82-27.86.62-32.52,3.44,3.59-2.06,12.26-15.46,11-20.43s-7.11-3.73-11-2.9C179.62,16,160.54,28.9,146.27,41c3.21-5.79,2.4-13.44-1.14-19.28s-9.48-10-15.91-12.64C120.27,5.27,103.19,3.54,96.75,12.2Z"/><path d="M8.58,66.56c18.34,0,35.29-16.78,40.68-31.68-1,2.83,4.19,11.45,5.27,14.47,2,5.44,3.83,10.95,5.68,16.49,3.32,9.93,6.53,20.87,6.62,30.86.09,8.93-9.58,3.88-14.66-1.77C47.68,89.89,43.65,84.6,41.3,79a36.94,36.94,0,0,1-2.12-8.46c-.47-2.72-2-2.51-3.93-.88-1.15.93-2.18,1.94-3.33,2.85-1.69,1.33-4.15,2.75-4.9,4.61-4.49,11.3,8.23,28.21,18.25,39.55,7.42,8.07,17.07,17.14,26.88,22.76,12.95,7.56,21.22,1.43,20.29-11.71C90.32,97.06,69.52,66,57.62,39.08,49.47,20.51,86.45,17.87,96.79,7.18,74.4,1.09-30.32,51.39,8.58,66.56Z"/><path d="M117.84,128.19c1.93-.44,2.15-21.37,2.06-23.17a142.28,142.28,0,0,0-3.83-24.24c-3.52-14.43-8.83-28.94-16.92-41.5-2.49-4-10.83-17-17.55-13.17-3.32,1.86-3.69,6.91-3.93,10-.62,8,.64,16.13,2,24.06,1.79,10.33,4.22,20.64,6.83,31C87,96.38,90,101.3,95.74,103c5.52,10.47,5.05,21.16,6.51,31.72a1,1,0,0,0,.24.59.61.61,0,0,0,.7.08c2-1,.12-10.09-.13-12.41-.49-4.72-1.23-9.47-1.81-14.21a95.06,95.06,0,0,1-.88-14,46.42,46.42,0,0,1,.72-7.09c.19-1.07,2.21-5.69,1.8-6.51A132.41,132.41,0,0,1,111.8,104c2,6.87,4.88,15,4.77,21.86a2.62,2.62,0,0,0,1,2.3A.33.33,0,0,0,117.84,128.19Zm-22.94-67c-.65,30.18-14.68-14.91-10.77-26.5C88.32,43.27,91.22,52.39,94.9,61.17Z"/><path d="M417.28,71.93c-32.54,60.12-48.61,34.09-27.61,7.66,14.76,8.2,28.78-19,21.65-27.5-12-7.54-27.35,9.37-28.36,19.27C375.56,47.87,418.33,14,382.87,0c-16.69,2-23.23,80.11.61,75.8C342.43,162.36,423,152.93,423.59,68A42.5,42.5,0,0,0,417.28,71.93Z"/><path d="M293.49,109.59c-16-15.83-37.88-23.34-58.27-33.85-.27,6.15,13.36,10.57,14.13,15.88,3.54,23.69,18.77,16.23,27.16,22.39-11.63,6.58-59.61,0-46.86-30.27-26.11,15.89-59.2,32.54-8.35,50.9C240.6,142.31,336.82,156.56,293.49,109.59Z"/><path d="M361.28,53.47c-.43-8.53.54-17.19.39-25.89-.11-5.8.56-15.91-3.89-21.1a31.08,31.08,0,0,0-1.49,2.88c-3.37-1.21-7.21-2.43-10.44-1.19a10,10,0,0,0-3.07,2,21.85,21.85,0,0,0-7.1,18.33A63.88,63.88,0,0,0,337.9,38c4.33,16.47,1.92,34.52-1,51.15.32-1.8-.5-4.17-.61-6-.12-2-.15-4.11-.15-6.19,0-5.16.14-10.41-.25-15.58a22.57,22.57,0,0,0-1-6.44c-1.86-5-5.68,1.13-6.91,3.33-6,10.48-9.51,22.43-11.45,34.07a115.77,115.77,0,0,0-1.47,24.39,103.42,103.42,0,0,0,1.22,11.7c.56,3.41.38,6.84,1.26,10.13a1.21,1.21,0,0,0,.27.57c1.48,1.33,1.8-2.6,1.79-3.13,0-2.36-.58-4.65-.69-7-.39-8.17.73-16.9,1.95-25.34a160.92,160.92,0,0,1,3.38-17.07q1-4.11,2.34-8.17c.62-2,3.08-6.16,2.83-8,2.87,20.71-2.6,63.84,24.69,60.56C370.47,107,362.05,78.94,361.28,53.47Z"/><path d="M314.18,69.45c3.83-33.06-30.6,3.92-40.05,14.06-4.33-5.15,4.29-11.17,5.64-16.36,1.07-2.76-.23-4.49-5.87-4.54-6.41,1.79-9.54,11.19-9.73,15.64C267.93,100.42,314.46,91.89,314.18,69.45Z"/><path d="M217.61,79c7.28-3.21,14.61-6.56,22-9.61,7.86-3.22,16.53-5.1,24.76-7.52,17.68-5.17,36.5-9.93,52.9-19.11C305.07,26.86,297,30.84,282.37,40.65c-29.59,19.76-62.78,33.34-92,50-1.83,1-3.64,2.1-5.44,3.16-1,.58-2.07,2-1.13,2.81.55.45,1.31.11,1.9-.24,9.81-5.91,20-11.25,30.36-16.76Z"/></g></g></svg>